<svg width="143" height="55" viewBox="0 0 143 55" fill="none" xmlns="http://www.w3.org/2000/svg">
<path d="M6.76758 20H5.04883V6.875H0.341797V5.35156H11.4746V6.875H6.76758V20ZM22.4391 20H21.0621L20.9547 18.7109C20.5966 19.1732 20.1409 19.5378 19.5875 19.8047C19.0341 20.0651 18.4156 20.1953 17.732 20.1953C17.0289 20.1953 16.4007 20.0586 15.8473 19.7852C15.2939 19.5052 14.8577 19.1243 14.5387 18.6426C14.2262 18.1608 14.0699 17.6139 14.0699 17.002C14.0699 16.3574 14.2392 15.791 14.5777 15.3027C14.9228 14.8079 15.3883 14.4206 15.9742 14.1406C16.5667 13.8607 17.2372 13.7207 17.9859 13.7207C18.4742 13.7207 18.9723 13.7826 19.4801 13.9062C19.9879 14.0234 20.4404 14.1862 20.8375 14.3945V13.9844C20.8375 13.4635 20.7073 13.0208 20.4469 12.6562C20.1865 12.2852 19.8382 12.002 19.402 11.8066C18.9658 11.6048 18.484 11.5039 17.9566 11.5039C17.5009 11.5039 17.0354 11.5885 16.5602 11.7578C16.0849 11.9206 15.6292 12.1745 15.193 12.5195L14.6656 11.1426C15.232 10.778 15.8277 10.5046 16.4527 10.3223C17.0777 10.1335 17.6962 10.0391 18.3082 10.0391C19.1546 10.0391 19.8837 10.2116 20.4957 10.5566C21.1142 10.8952 21.5927 11.3802 21.9312 12.0117C22.2698 12.6367 22.4391 13.3789 22.4391 14.2383V20ZM18.0152 18.7305C18.5165 18.7305 18.9755 18.6263 19.3922 18.418C19.8089 18.2096 20.1474 17.9102 20.4078 17.5195C20.6682 17.1224 20.8115 16.6536 20.8375 16.1133V15.9473C20.4794 15.6673 20.0758 15.4525 19.6266 15.3027C19.1839 15.1465 18.7314 15.0684 18.2691 15.0684C17.5465 15.0684 16.941 15.2441 16.4527 15.5957C15.971 15.9473 15.7301 16.3932 15.7301 16.9336C15.7301 17.2721 15.8277 17.5781 16.023 17.8516C16.2249 18.125 16.4983 18.3398 16.8434 18.4961C17.1884 18.6523 17.579 18.7305 18.0152 18.7305ZM29.2824 24.8828H27.6809V10.2344H29.1066L29.1848 11.6602C29.6405 11.1589 30.1906 10.765 30.8352 10.4785C31.4797 10.1855 32.1861 10.0391 32.9543 10.0391C33.9113 10.0391 34.7674 10.2604 35.5227 10.7031C36.2844 11.1458 36.8833 11.7513 37.3195 12.5195C37.7622 13.2812 37.9836 14.1471 37.9836 15.1172C37.9836 16.0807 37.7622 16.9466 37.3195 17.7148C36.8833 18.4831 36.2844 19.0885 35.5227 19.5312C34.7674 19.974 33.9113 20.1953 32.9543 20.1953C32.2186 20.1953 31.535 20.0618 30.9035 19.7949C30.2785 19.528 29.7382 19.1569 29.2824 18.6816V24.8828ZM32.8273 18.7305C33.5109 18.7305 34.1164 18.5775 34.6437 18.2715C35.1711 17.959 35.5812 17.5293 35.8742 16.9824C36.1737 16.4355 36.3234 15.8105 36.3234 15.1074C36.3234 14.3978 36.1737 13.7728 35.8742 13.2324C35.5747 12.6855 35.1613 12.2559 34.634 11.9434C34.1132 11.6309 33.5142 11.4746 32.8371 11.4746C32.1926 11.4746 31.6099 11.6178 31.0891 11.9043C30.5747 12.1908 30.1581 12.5846 29.8391 13.0859C29.5201 13.5807 29.3345 14.1471 29.2824 14.7852V15.4492C29.3345 16.0872 29.5168 16.6536 29.8293 17.1484C30.1418 17.6432 30.5552 18.0306 31.0695 18.3105C31.5904 18.5905 32.1763 18.7305 32.8273 18.7305ZM43.4793 7.14844C43.2059 7.14844 42.9747 7.05404 42.7859 6.86523C42.6036 6.66992 42.5125 6.43555 42.5125 6.16211C42.5125 5.89518 42.6036 5.66732 42.7859 5.47852C42.9747 5.28971 43.2059 5.19531 43.4793 5.19531C43.7592 5.19531 43.9936 5.28971 44.1824 5.47852C44.3712 5.66732 44.4656 5.89518 44.4656 6.16211C44.4656 6.43555 44.3712 6.66992 44.1824 6.86523C43.9936 7.05404 43.7592 7.14844 43.4793 7.14844ZM44.2801 20H42.6785V10.2344H44.2801V20ZM54.102 20.1953C53.1319 20.1953 52.2595 19.974 51.4848 19.5312C50.71 19.0885 50.098 18.4863 49.6488 17.7246C49.2061 16.9564 48.9848 16.0872 48.9848 15.1172C48.9848 14.1536 49.2061 13.291 49.6488 12.5293C50.098 11.7611 50.71 11.1556 51.4848 10.7129C52.2595 10.2637 53.1319 10.0391 54.102 10.0391C55.072 10.0391 55.9411 10.2637 56.7094 10.7129C57.4776 11.1556 58.0831 11.7611 58.5258 12.5293C58.9685 13.291 59.1898 14.1536 59.1898 15.1172C59.1898 16.0872 58.9685 16.9564 58.5258 17.7246C58.0831 18.4863 57.4776 19.0885 56.7094 19.5312C55.9411 19.974 55.072 20.1953 54.102 20.1953ZM54.0922 18.75C54.7497 18.75 55.3389 18.5905 55.8598 18.2715C56.3806 17.9525 56.7908 17.5195 57.0902 16.9727C57.3962 16.4258 57.5492 15.804 57.5492 15.1074C57.5492 14.4238 57.3962 13.8086 57.0902 13.2617C56.7908 12.7148 56.3806 12.2819 55.8598 11.9629C55.3389 11.6439 54.7497 11.4844 54.0922 11.4844C53.4346 11.4844 52.8422 11.6439 52.3148 11.9629C51.794 12.2819 51.3806 12.7148 51.0746 13.2617C50.7751 13.8086 50.6254 14.4238 50.6254 15.1074C50.6254 15.804 50.7751 16.4258 51.0746 16.9727C51.3806 17.5195 51.794 17.9525 52.3148 18.2715C52.8422 18.5905 53.4346 18.75 54.0922 18.75ZM71.9609 18.5938C71.4857 19.1081 70.9225 19.5052 70.2715 19.7852C69.6204 20.0586 68.9206 20.1953 68.1719 20.1953C67.2018 20.1953 66.3294 19.974 65.5547 19.5312C64.7865 19.0885 64.1777 18.4831 63.7285 17.7148C63.2858 16.9466 63.0645 16.0807 63.0645 15.1172C63.0645 14.1471 63.2858 13.2812 63.7285 12.5195C64.1777 11.7513 64.7865 11.1458 65.5547 10.7031C66.3294 10.2604 67.2018 10.0391 68.1719 10.0391C68.9141 10.0391 69.6107 10.1758 70.2617 10.4492C70.9128 10.7227 71.4759 11.1165 71.9512 11.6309L70.9941 12.6367C70.6491 12.2721 70.2357 11.9922 69.7539 11.7969C69.2786 11.6016 68.7741 11.5039 68.2402 11.5039C67.5566 11.5039 66.9479 11.6602 66.4141 11.9727C65.8867 12.2786 65.4701 12.7018 65.1641 13.2422C64.8646 13.7826 64.7148 14.4043 64.7148 15.1074C64.7148 15.8105 64.8646 16.4355 65.1641 16.9824C65.4701 17.5293 65.8867 17.959 66.4141 18.2715C66.9479 18.5775 67.5566 18.7305 68.2402 18.7305C68.7741 18.7305 69.2819 18.6328 69.7637 18.4375C70.2454 18.2357 70.6556 17.9557 70.9941 17.5977L71.9609 18.5938ZM84.4977 20H83.1207L83.0133 18.7109C82.6552 19.1732 82.1995 19.5378 81.6461 19.8047C81.0927 20.0651 80.4742 20.1953 79.7906 20.1953C79.0875 20.1953 78.4592 20.0586 77.9059 19.7852C77.3525 19.5052 76.9163 19.1243 76.5973 18.6426C76.2848 18.1608 76.1285 17.6139 76.1285 17.002C76.1285 16.3574 76.2978 15.791 76.6363 15.3027C76.9814 14.8079 77.4469 14.4206 78.0328 14.1406C78.6253 13.8607 79.2958 13.7207 80.0445 13.7207C80.5328 13.7207 81.0309 13.7826 81.5387 13.9062C82.0465 14.0234 82.499 14.1862 82.8961 14.3945V13.9844C82.8961 13.4635 82.7659 13.0208 82.5055 12.6562C82.2451 12.2852 81.8967 12.002 81.4605 11.8066C81.0244 11.6048 80.5426 11.5039 80.0152 11.5039C79.5595 11.5039 79.094 11.5885 78.6188 11.7578C78.1435 11.9206 77.6878 12.1745 77.2516 12.5195L76.7242 11.1426C77.2906 10.778 77.8863 10.5046 78.5113 10.3223C79.1363 10.1335 79.7548 10.0391 80.3668 10.0391C81.2132 10.0391 81.9423 10.2116 82.5543 10.5566C83.1728 10.8952 83.6513 11.3802 83.9898 12.0117C84.3284 12.6367 84.4977 13.3789 84.4977 14.2383V20ZM80.0738 18.7305C80.5751 18.7305 81.0341 18.6263 81.4508 18.418C81.8674 18.2096 82.206 17.9102 82.4664 17.5195C82.7268 17.1224 82.8701 16.6536 82.8961 16.1133V15.9473C82.538 15.6673 82.1344 15.4525 81.6852 15.3027C81.2424 15.1465 80.79 15.0684 80.3277 15.0684C79.6051 15.0684 78.9996 15.2441 78.5113 15.5957C78.0296 15.9473 77.7887 16.3932 77.7887 16.9336C77.7887 17.2721 77.8863 17.5781 78.0816 17.8516C78.2835 18.125 78.5569 18.3398 78.902 18.4961C79.247 18.6523 79.6376 18.7305 80.0738 18.7305Z" fill="white"/>
<path d="M0.324 43.76C0.324 43.064 0.528 42.26 0.936 41.348C1.344 40.412 1.788 39.776 2.268 39.44C3.18 40.112 4.104 40.448 5.04 40.448L6.156 40.268C7.452 39.884 8.124 38.852 8.172 37.172V27.992H5.292C4.884 27.992 4.596 27.476 4.428 26.444C4.356 25.94 4.32 25.424 4.32 24.896C4.32 24.368 4.356 23.852 4.428 23.348C4.596 22.316 4.884 21.8 5.292 21.8H13.86C14.34 21.8 14.7 21.944 14.94 22.232C15.18 22.496 15.3 22.82 15.3 23.204V40.196C15.3 42.548 14.508 44.336 12.924 45.56C11.364 46.784 9.48 47.396 7.272 47.396C5.088 47.396 3.384 47.072 2.16 46.424C0.936 45.776 0.324 44.888 0.324 43.76ZM31.9289 31.808C32.3849 31.808 32.6129 32.648 32.6129 34.328C32.6129 34.832 32.5529 35.432 32.4329 36.128C32.3369 36.8 32.1449 37.136 31.8569 37.136H27.2849V40.736H33.9089C34.3169 40.736 34.5929 41.264 34.7369 42.32C34.8089 42.776 34.8449 43.268 34.8449 43.796C34.8449 44.3 34.7729 44.96 34.6289 45.776C34.4849 46.592 34.2449 47 33.9089 47H21.5969C20.6849 47 20.2289 46.628 20.2289 45.884V22.736C20.2289 22.112 20.5049 21.8 21.0569 21.8H33.9449C34.4489 21.8 34.7009 22.868 34.7009 25.004C34.7009 27.116 34.4489 28.172 33.9449 28.172H27.2849V31.808H31.9289ZM40.7188 38.216C41.1748 38.576 41.9548 39.068 43.0588 39.692C44.1868 40.316 45.2548 40.628 46.2628 40.628C47.2948 40.628 47.8108 40.232 47.8108 39.44C47.8108 39.08 47.6668 38.768 47.3788 38.504C47.0908 38.216 46.5628 37.892 45.7948 37.532C45.0268 37.172 44.4508 36.896 44.0668 36.704C43.6828 36.488 43.1668 36.152 42.5188 35.696C41.8948 35.216 41.4148 34.724 41.0788 34.22C40.1188 32.852 39.6388 31.112 39.6388 29C39.6388 26.888 40.4188 25.112 41.9788 23.672C43.5628 22.208 45.6268 21.476 48.1708 21.476C49.8988 21.476 51.4948 21.668 52.9588 22.052C54.4228 22.412 55.1788 22.892 55.2268 23.492C55.2268 23.564 55.2268 23.636 55.2268 23.708C55.2268 24.548 54.9628 25.616 54.4348 26.912C53.9068 28.184 53.5348 28.892 53.3188 29.036C51.7828 28.244 50.4028 27.848 49.1788 27.848C47.9788 27.848 47.3788 28.28 47.3788 29.144C47.3788 29.672 47.8228 30.14 48.7108 30.548C48.9028 30.644 49.1788 30.776 49.5388 30.944C49.8988 31.112 50.3068 31.316 50.7628 31.556C51.2428 31.772 51.7468 32.06 52.2748 32.42C52.8268 32.756 53.4148 33.212 54.0388 33.788C55.3108 34.988 55.9468 36.572 55.9468 38.54C55.9468 41.108 55.2388 43.208 53.8228 44.84C52.4068 46.472 50.2228 47.312 47.2708 47.36C45.8308 47.36 44.5228 47.24 43.3468 47C42.1948 46.76 41.1868 46.292 40.3228 45.596C39.4588 44.9 39.0268 44.06 39.0268 43.076C39.0268 42.092 39.2068 41.12 39.5668 40.16C39.9268 39.176 40.3108 38.528 40.7188 38.216ZM61.6438 38.216C62.0998 38.576 62.8798 39.068 63.9838 39.692C65.1118 40.316 66.1798 40.628 67.1878 40.628C68.2198 40.628 68.7358 40.232 68.7358 39.44C68.7358 39.08 68.5918 38.768 68.3038 38.504C68.0158 38.216 67.4878 37.892 66.7198 37.532C65.9518 37.172 65.3758 36.896 64.9918 36.704C64.6078 36.488 64.0918 36.152 63.4438 35.696C62.8198 35.216 62.3398 34.724 62.0038 34.22C61.0438 32.852 60.5638 31.112 60.5638 29C60.5638 26.888 61.3438 25.112 62.9038 23.672C64.4878 22.208 66.5518 21.476 69.0958 21.476C70.8238 21.476 72.4198 21.668 73.8838 22.052C75.3478 22.412 76.1038 22.892 76.1518 23.492C76.1518 23.564 76.1518 23.636 76.1518 23.708C76.1518 24.548 75.8878 25.616 75.3598 26.912C74.8318 28.184 74.4598 28.892 74.2438 29.036C72.7078 28.244 71.3278 27.848 70.1038 27.848C68.9038 27.848 68.3038 28.28 68.3038 29.144C68.3038 29.672 68.7478 30.14 69.6358 30.548C69.8278 30.644 70.1038 30.776 70.4638 30.944C70.8238 31.112 71.2318 31.316 71.6878 31.556C72.1678 31.772 72.6718 32.06 73.1998 32.42C73.7518 32.756 74.3398 33.212 74.9638 33.788C76.2358 34.988 76.8718 36.572 76.8718 38.54C76.8718 41.108 76.1638 43.208 74.7478 44.84C73.3318 46.472 71.1478 47.312 68.1958 47.36C66.7558 47.36 65.4478 47.24 64.2718 47C63.1198 46.76 62.1118 46.292 61.2478 45.596C60.3838 44.9 59.9518 44.06 59.9518 43.076C59.9518 42.092 60.1318 41.12 60.4918 40.16C60.8518 39.176 61.2358 38.528 61.6438 38.216ZM84.0088 40.808V27.992H81.4528C81.0448 27.992 80.7568 27.476 80.5888 26.444C80.5168 25.94 80.4808 25.424 80.4808 24.896C80.4808 24.368 80.5168 23.852 80.5888 23.348C80.7568 22.316 81.0448 21.8 81.4528 21.8H93.5488C93.9568 21.8 94.2328 22.316 94.3768 23.348C94.4728 23.852 94.5208 24.368 94.5208 24.896C94.5208 25.424 94.4728 25.94 94.3768 26.444C94.2328 27.476 93.9568 27.992 93.5488 27.992H91.1368V40.808H93.6568C94.0648 40.808 94.3528 41.324 94.5208 42.356C94.6168 42.86 94.6648 43.376 94.6648 43.904C94.6648 44.432 94.6168 44.948 94.5208 45.452C94.3528 46.484 94.0648 47 93.6568 47H81.5248C81.1168 47 80.8408 46.484 80.6968 45.452C80.6008 44.948 80.5528 44.432 80.5528 43.904C80.5528 43.376 80.6008 42.86 80.6968 42.356C80.8408 41.324 81.1168 40.808 81.5248 40.808H84.0088ZM109.162 21.476C110.914 21.476 112.45 21.728 113.77 22.232C115.114 22.712 115.786 23.372 115.786 24.212C115.786 25.052 115.462 26.096 114.814 27.344C114.19 28.568 113.662 29.18 113.23 29.18C113.11 29.18 112.966 29.12 112.798 29C112.654 28.856 112.294 28.712 111.718 28.568C111.166 28.4 110.686 28.316 110.278 28.316C108.886 28.316 107.758 28.808 106.894 29.792C106.054 30.776 105.634 32.288 105.634 34.328C105.634 36.344 106.066 37.844 106.93 38.828C107.818 39.812 108.934 40.304 110.278 40.304C110.83 40.304 111.442 40.232 112.114 40.088C112.81 39.92 113.302 39.692 113.59 39.404C113.638 39.356 113.734 39.332 113.878 39.332C114.022 39.332 114.286 39.608 114.67 40.16C115.078 40.688 115.45 41.396 115.786 42.284C116.122 43.148 116.29 43.82 116.29 44.3C116.29 45.236 115.57 45.98 114.13 46.532C112.69 47.084 110.986 47.36 109.018 47.36C105.85 47.36 103.246 46.244 101.206 44.012C99.1664 41.78 98.1464 38.636 98.1464 34.58C98.1464 30.5 99.1904 27.296 101.278 24.968C103.39 22.64 106.018 21.476 109.162 21.476ZM137.766 47.072C135.678 47.072 134.55 46.736 134.382 46.064L133.194 41.42H127.47L126.426 45.884C126.282 46.628 125.13 47 122.97 47C121.818 47 120.966 46.94 120.414 46.82C119.862 46.676 119.586 46.568 119.586 46.496L125.958 22.124C125.958 21.932 127.602 21.836 130.89 21.836C134.178 21.836 135.822 21.932 135.822 22.124L142.05 46.532C142.05 46.7 141.498 46.832 140.394 46.928C139.29 47.024 138.414 47.072 137.766 47.072ZM128.37 36.848H132.15L130.53 29.396H130.314L128.37 36.848Z" fill="white"/>
<path d="M105.045 20H103.619L103.531 18.5742C103.082 19.0755 102.535 19.4727 101.891 19.7656C101.246 20.0521 100.543 20.1953 99.7812 20.1953C98.8177 20.1953 97.9551 19.974 97.1934 19.5312C96.4316 19.0885 95.8294 18.4831 95.3867 17.7148C94.9505 16.9466 94.7324 16.0807 94.7324 15.1172C94.7324 14.1471 94.9505 13.2812 95.3867 12.5195C95.8294 11.7513 96.4316 11.1458 97.1934 10.7031C97.9551 10.2604 98.8177 10.0391 99.7812 10.0391C100.517 10.0391 101.197 10.1725 101.822 10.4395C102.454 10.7064 102.994 11.0775 103.443 11.5527V5.35156H105.045V20ZM99.918 18.75C100.569 18.75 101.161 18.6003 101.695 18.3008C102.229 17.9948 102.652 17.5814 102.965 17.0605C103.284 16.5332 103.443 15.9375 103.443 15.2734V14.9414C103.443 14.2773 103.284 13.6849 102.965 13.1641C102.652 12.6367 102.229 12.2233 101.695 11.9238C101.161 11.6243 100.569 11.4746 99.918 11.4746C99.2409 11.4746 98.6354 11.6341 98.1016 11.9531C97.5677 12.2721 97.1445 12.7051 96.832 13.252C96.526 13.7988 96.373 14.4173 96.373 15.1074C96.373 15.7975 96.526 16.4193 96.832 16.9727C97.1445 17.5195 97.5677 17.9525 98.1016 18.2715C98.6354 18.5905 99.2409 18.75 99.918 18.75ZM118.353 20H116.976L116.869 18.7109C116.511 19.1732 116.055 19.5378 115.502 19.8047C114.948 20.0651 114.33 20.1953 113.646 20.1953C112.943 20.1953 112.315 20.0586 111.761 19.7852C111.208 19.5052 110.772 19.1243 110.453 18.6426C110.14 18.1608 109.984 17.6139 109.984 17.002C109.984 16.3574 110.153 15.791 110.492 15.3027C110.837 14.8079 111.302 14.4206 111.888 14.1406C112.481 13.8607 113.151 13.7207 113.9 13.7207C114.388 13.7207 114.886 13.7826 115.394 13.9062C115.902 14.0234 116.354 14.1862 116.752 14.3945V13.9844C116.752 13.4635 116.621 13.0208 116.361 12.6562C116.101 12.2852 115.752 12.002 115.316 11.8066C114.88 11.6048 114.398 11.5039 113.871 11.5039C113.415 11.5039 112.949 11.5885 112.474 11.7578C111.999 11.9206 111.543 12.1745 111.107 12.5195L110.58 11.1426C111.146 10.778 111.742 10.5046 112.367 10.3223C112.992 10.1335 113.61 10.0391 114.222 10.0391C115.069 10.0391 115.798 10.2116 116.41 10.5566C117.028 10.8952 117.507 11.3802 117.845 12.0117C118.184 12.6367 118.353 13.3789 118.353 14.2383V20ZM113.929 18.7305C114.431 18.7305 114.89 18.6263 115.306 18.418C115.723 18.2096 116.061 17.9102 116.322 17.5195C116.582 17.1224 116.726 16.6536 116.752 16.1133V15.9473C116.393 15.6673 115.99 15.4525 115.541 15.3027C115.098 15.1465 114.645 15.0684 114.183 15.0684C113.461 15.0684 112.855 15.2441 112.367 15.5957C111.885 15.9473 111.644 16.3932 111.644 16.9336C111.644 17.2721 111.742 17.5781 111.937 17.8516C112.139 18.125 112.412 18.3398 112.757 18.4961C113.102 18.6523 113.493 18.7305 113.929 18.7305Z" fill="white"/>
</svg>
