<svg width="360" height="6" viewBox="0 0 360 6" fill="none" xmlns="http://www.w3.org/2000/svg">
<path d="M0 1.08845L2.5 1.26804C5 1.4694 10 1.79593 15 2.17688C20 2.55784 25 2.88437 30 3.1728C35 3.42859 40 3.64627 45 3.53743C50 3.42859 55 3.10205 60 2.7211C65 2.34015 70 2.01362 75 2.08437C80 2.17688 85 2.7211 90 3.08573C95 3.42859 100 3.64627 105 3.26532C110 2.88437 115 2.01362 120 2.08437C125 2.17688 130 3.26532 135 3.62995C140 3.9728 145 3.64627 150 3.26532C155 2.88437 160 2.55784 165 2.62859C170 2.7211 175 3.26532 180 3.62995C185 3.9728 190 4.19049 195 4.17416C200 4.19049 205 3.9728 210 3.98913C215 3.9728 220 4.19049 225 3.53743C230 2.88437 235 1.4694 240 1.26804C245 1.08845 250 2.17688 255 2.7211C260 3.26532 265 3.26532 270 3.53743C275 3.80954 280 4.35375 285 4.44627C290 4.51702 295 4.19049 300 4.17416C305 4.19049 310 4.51702 315 4.08165C320 3.64627 325 2.34015 330 1.54015C335 0.707497 340 0.380967 345 0.272123C350 0.16328 355 0.380967 357.5 0.451715L360 0.544232V5.44219H357.5C355 5.44219 350 5.44219 345 5.44219C340 5.44219 335 5.44219 330 5.44219C325 5.44219 320 5.44219 315 5.44219C310 5.44219 305 5.44219 300 5.44219C295 5.44219 290 5.44219 285 5.44219C280 5.44219 275 5.44219 270 5.44219C265 5.44219 260 5.44219 255 5.44219C250 5.44219 245 5.44219 240 5.44219C235 5.44219 230 5.44219 225 5.44219C220 5.44219 215 5.44219 210 5.44219C205 5.44219 200 5.44219 195 5.44219C190 5.44219 185 5.44219 180 5.44219C175 5.44219 170 5.44219 165 5.44219C160 5.44219 155 5.44219 150 5.44219C145 5.44219 140 5.44219 135 5.44219C130 5.44219 125 5.44219 120 5.44219C115 5.44219 110 5.44219 105 5.44219C100 5.44219 95 5.44219 90 5.44219C85 5.44219 80 5.44219 75 5.44219C70 5.44219 65 5.44219 60 5.44219C55 5.44219 50 5.44219 45 5.44219C40 5.44219 35 5.44219 30 5.44219C25 5.44219 20 5.44219 15 5.44219C10 5.44219 5 5.44219 2.5 5.44219H0L0 1.08845Z" fill="url(#paint0_linear_9_21)"/>
<defs>
<linearGradient id="paint0_linear_9_21" x1="0" y1="5.44219" x2="0" y2="0.242188" gradientUnits="userSpaceOnUse">
<stop stop-color="#A20000"/>
<stop offset="1" stop-color="#A20000"/>
</linearGradient>
</defs>
</svg>
