<svg width="360" height="10" viewBox="0 0 360 10" fill="none" xmlns="http://www.w3.org/2000/svg">
<path d="M0 8.37257L2.5 8.0272C5 7.63997 10 7.01203 15 6.27943C20 5.54683 25 4.91889 30 4.3642C35 3.87231 40 3.45369 45 3.663C50 3.87231 55 4.50026 60 5.23286C65 5.96546 70 6.5934 75 6.45735C80 6.27943 85 5.23286 90 4.53166C95 3.87231 100 3.45369 105 4.18629C110 4.91889 115 6.5934 120 6.45735C125 6.27943 130 4.18629 135 3.48508C140 2.82574 145 3.45369 150 4.18629C155 4.91889 160 5.54683 165 5.41078C170 5.23286 175 4.18629 180 3.48508C185 2.82574 190 2.40712 195 2.43851C200 2.40712 205 2.82574 210 2.79435C215 2.82574 220 2.40711 225 3.663C230 4.91889 235 7.63997 240 8.0272C245 8.37257 250 6.27943 255 5.23286C260 4.18629 265 4.18629 270 3.663C275 3.13971 280 2.09314 285 1.91523C290 1.77917 295 2.40712 300 2.43851C305 2.40712 310 1.77917 315 2.61643C320 3.45369 325 5.96546 330 7.50392C335 9.10517 340 9.73312 345 9.94243C350 10.1517 355 9.73312 357.5 9.59706L360 9.41914V0H357.5C355 0 350 0 345 0C340 0 335 0 330 0C325 0 320 0 315 0C310 0 305 0 300 0C295 0 290 0 285 0C280 0 275 0 270 0C265 0 260 0 255 0C250 0 245 0 240 0C235 0 230 0 225 0C220 0 215 0 210 0C205 0 200 0 195 0C190 0 185 0 180 0C175 0 170 0 165 0C160 0 155 0 150 0C145 0 140 0 135 0C130 0 125 0 120 0C115 0 110 0 105 0C100 0 95 0 90 0C85 0 80 0 75 0C70 0 65 0 60 0C55 0 50 0 45 0C40 0 35 0 30 0C25 0 20 0 15 0C10 0 5 0 2.5 0H0L0 8.37257Z" fill="#F4F4F4"/>
</svg>
