<svg width="360" height="26" viewBox="0 0 360 26" fill="none" xmlns="http://www.w3.org/2000/svg">
<path d="M361 20.0555L358.493 19.2283C355.986 18.3007 350.972 16.7965 345.958 15.0417C340.944 13.2868 335.931 11.7826 330.917 10.454C325.903 9.27569 320.889 8.27292 315.875 8.77431C310.861 9.27569 305.847 10.7799 300.833 12.5347C295.819 14.2896 290.806 15.7937 285.792 15.4678C280.778 15.0417 275.764 12.5347 270.75 10.8551C265.736 9.27569 260.722 8.27292 255.708 10.0278C250.694 11.7826 245.681 15.7937 240.667 15.4678C235.653 15.0417 230.639 10.0278 225.625 8.34813C220.611 6.76875 215.597 8.27292 210.583 10.0278C205.569 11.7826 200.556 13.2868 195.542 12.9609C190.528 12.5347 185.514 10.0278 180.5 8.34813C175.486 6.76875 170.472 5.76598 165.458 5.84118C160.444 5.76598 155.431 6.76875 150.417 6.69354C145.403 6.76875 140.389 5.76598 135.375 8.77431C130.361 11.7826 125.347 18.3007 120.333 19.2283C115.319 20.0555 110.306 15.0417 105.292 12.5347C100.278 10.0278 95.2639 10.0278 90.25 8.77431C85.2361 7.52083 80.2222 5.0139 75.2083 4.58772C70.1944 4.26181 65.1805 5.76598 60.1667 5.84118C55.1528 5.76598 50.1389 4.26181 45.125 6.26736C40.1111 8.27292 35.0972 14.2896 30.0833 17.9748C25.0694 21.8104 20.0555 23.3146 15.0417 23.816C10.0278 24.3173 5.01389 23.3146 2.50693 22.9887L0 22.5625V9.53674e-06H2.50693C5.01389 9.53674e-06 10.0278 9.53674e-06 15.0417 9.53674e-06C20.0555 9.53674e-06 25.0694 9.53674e-06 30.0833 9.53674e-06C35.0972 9.53674e-06 40.1111 9.53674e-06 45.125 9.53674e-06C50.1389 9.53674e-06 55.1528 9.53674e-06 60.1667 9.53674e-06C65.1805 9.53674e-06 70.1944 9.53674e-06 75.2083 9.53674e-06C80.2222 9.53674e-06 85.2361 9.53674e-06 90.25 9.53674e-06C95.2639 9.53674e-06 100.278 9.53674e-06 105.292 9.53674e-06C110.306 9.53674e-06 115.319 9.53674e-06 120.333 9.53674e-06C125.347 9.53674e-06 130.361 9.53674e-06 135.375 9.53674e-06C140.389 9.53674e-06 145.403 9.53674e-06 150.417 9.53674e-06C155.431 9.53674e-06 160.444 9.53674e-06 165.458 9.53674e-06C170.472 9.53674e-06 175.486 9.53674e-06 180.5 9.53674e-06C185.514 9.53674e-06 190.528 9.53674e-06 195.542 9.53674e-06C200.556 9.53674e-06 205.569 9.53674e-06 210.583 9.53674e-06C215.597 9.53674e-06 220.611 9.53674e-06 225.625 9.53674e-06C230.639 9.53674e-06 235.653 9.53674e-06 240.667 9.53674e-06C245.681 9.53674e-06 250.694 9.53674e-06 255.708 9.53674e-06C260.722 9.53674e-06 265.736 9.53674e-06 270.75 9.53674e-06C275.764 9.53674e-06 280.778 9.53674e-06 285.792 9.53674e-06C290.806 9.53674e-06 295.819 9.53674e-06 300.833 9.53674e-06C305.847 9.53674e-06 310.861 9.53674e-06 315.875 9.53674e-06C320.889 9.53674e-06 325.903 9.53674e-06 330.917 9.53674e-06C335.931 9.53674e-06 340.944 9.53674e-06 345.958 9.53674e-06C350.972 9.53674e-06 355.986 9.53674e-06 358.493 9.53674e-06H361V20.0555Z" fill="url(#paint0_linear_4_6)"/>
<defs>
<linearGradient id="paint0_linear_4_6" x1="361" y1="9.53674e-06" x2="361" y2="23.9539" gradientUnits="userSpaceOnUse">
<stop stop-color="#A20000"/>
<stop offset="1" stop-color="#A20000"/>
</linearGradient>
</defs>
</svg>
